<svg width="21" height="21" viewBox="0 0 21 21" fill="none" xmlns="http://www.w3.org/2000/svg">
<path d="M20.8138 0.684893C20.902 0.773195 20.9623 0.885453 20.9872 1.00772C21.0121 1.12999 21.0005 1.25689 20.9539 1.37264L13.5428 19.8998C13.4775 20.0629 13.3685 20.2049 13.2277 20.3101C13.0868 20.4153 12.9198 20.4795 12.7448 20.4959C12.5698 20.5122 12.3937 20.4799 12.2358 20.4026C12.078 20.3253 11.9446 20.206 11.8502 20.0577L7.80269 13.696L1.44104 9.64852C1.29243 9.55425 1.17275 9.42076 1.09521 9.26278C1.01767 9.1048 0.985286 8.92847 1.00162 8.75325C1.01796 8.57802 1.08239 8.41072 1.18779 8.26979C1.2932 8.12887 1.43549 8.0198 1.59896 7.95463L20.1261 0.54607C20.2418 0.499472 20.3687 0.487908 20.491 0.512815C20.6133 0.537722 20.7255 0.598002 20.8138 0.686167V0.684893ZM9.07375 13.3241L12.5902 18.849L18.6181 3.77975L9.07375 13.3241ZM17.7177 2.87931L2.64841 8.90728L8.17458 12.4224L17.719 2.87931H17.7177Z" fill="white"/>
</svg>
